<svg width="293" height="294" viewBox="0 0 293 294" fill="none" xmlns="http://www.w3.org/2000/svg">
<rect x="19" y="19" width="256" height="257" rx="128" fill="url(#paint0_linear_4054_10128)"/>
<path d="M104.636 108.952L104.636 108.952C98.2005 108.956 91.9097 110.821 86.5584 114.313C81.2071 117.806 77.035 122.77 74.5713 128.579C72.1076 134.388 71.4637 140.78 72.7216 146.946C73.9794 153.113 77.082 158.776 81.6352 163.219C86.1883 167.663 91.9876 170.688 98.2994 171.914C104.611 173.14 111.154 172.512 117.101 170.11C123.048 167.708 128.134 163.638 131.714 158.414C135.295 153.189 137.209 147.044 137.212 140.756V140.755C137.207 132.318 133.771 124.23 127.661 118.268C121.552 112.306 113.271 108.957 104.636 108.952ZM104.636 174.039C97.8924 174.039 91.301 172.088 85.6957 168.433C80.0905 164.778 75.7237 159.584 73.1455 153.51C70.5674 147.435 69.893 140.752 71.2072 134.305C72.5213 127.857 75.7654 121.933 80.5312 117.282C85.2971 112.631 91.3707 109.463 97.9845 108.179C104.598 106.895 111.454 107.554 117.683 110.072C123.912 112.59 129.235 116.853 132.979 122.321C136.722 127.789 138.719 134.216 138.719 140.789C138.719 145.154 137.839 149.476 136.127 153.51C134.415 157.543 131.905 161.208 128.741 164.296C125.577 167.384 121.819 169.835 117.683 171.507C113.547 173.179 109.114 174.039 104.636 174.039Z" fill="white" stroke="white"/>
<path d="M69.9844 194.955H69.9844V194.958V203.396C69.9844 204.374 70.3826 205.309 71.0873 205.997C71.7916 206.684 72.7443 207.068 73.7352 207.068L135.588 207.068L135.59 207.068C136.578 207.063 137.525 206.677 138.225 205.99C138.926 205.303 139.321 204.37 139.321 203.396V194.958C139.321 194.476 139.224 194 139.035 193.555C138.847 193.111 138.57 192.708 138.223 192.369C137.876 192.03 137.464 191.762 137.012 191.579C136.56 191.396 136.076 191.302 135.588 191.302H73.7352C72.7477 191.302 71.7981 191.684 71.0944 192.367C70.3902 193.05 69.9897 193.981 69.9844 194.955ZM135.586 208.549H73.7366C73.7364 208.549 73.7362 208.549 73.736 208.549C72.3158 208.544 70.9574 207.992 69.9567 207.015C68.9565 206.039 68.395 204.719 68.3906 203.344V194.908C68.395 193.535 68.9569 192.217 69.9573 191.244C70.9582 190.27 72.3166 189.721 73.7352 189.721H135.588C137.004 189.721 138.361 190.27 139.359 191.244C140.357 192.218 140.915 193.536 140.915 194.907V203.345C140.915 204.718 140.357 206.038 139.359 207.015C138.361 207.992 137.005 208.544 135.587 208.549C135.586 208.549 135.586 208.549 135.586 208.549Z" fill="white" stroke="white"/>
<path d="M135.588 189.822L135.59 189.822C136.578 189.817 137.525 189.43 138.225 188.744C138.926 188.056 139.321 187.124 139.321 186.149V177.712C139.321 176.737 138.926 175.805 138.225 175.118C137.525 174.431 136.578 174.044 135.59 174.039H135.588H73.7352C72.7443 174.039 71.7916 174.423 71.0873 175.111C70.3826 175.798 69.9844 176.734 69.9844 177.712V186.149C69.9844 187.127 70.3826 188.063 71.0873 188.75C71.7916 189.438 72.7443 189.822 73.7352 189.822L135.588 189.822ZM135.586 191.302H73.7366C73.7364 191.302 73.7362 191.302 73.736 191.302C72.3158 191.298 70.9574 190.746 69.9567 189.769C68.9565 188.793 68.395 187.473 68.3906 186.098V177.662C68.395 176.287 68.9565 174.967 69.9567 173.991C70.9573 173.014 72.3158 172.462 73.7359 172.457H135.587C137.005 172.462 138.362 173.015 139.359 173.991C140.357 174.968 140.915 176.288 140.915 177.661V186.099C140.915 187.472 140.357 188.792 139.359 189.769C138.361 190.745 137.005 191.298 135.587 191.302C135.586 191.302 135.586 191.302 135.586 191.302Z" fill="white" stroke="white"/>
<path d="M84.8334 186.484C84.6856 186.628 84.4829 186.712 84.2688 186.712C84.054 186.709 83.8512 186.624 83.7028 186.479C83.5547 186.335 83.4722 186.142 83.4688 185.943V177.864C83.4688 177.665 83.5497 177.471 83.6978 177.327C83.8464 177.182 84.0504 177.098 84.2656 177.098C84.4809 177.098 84.6849 177.182 84.8334 177.327C84.9816 177.471 85.0625 177.665 85.0625 177.864V185.947C85.0625 186.146 84.9816 186.339 84.8334 186.484Z" fill="white" stroke="white"/>
<path d="M105.22 186.484C105.072 186.628 104.87 186.712 104.656 186.712C104.441 186.709 104.238 186.624 104.089 186.479C103.941 186.335 103.859 186.142 103.855 185.943V177.864C103.855 177.665 103.936 177.471 104.085 177.327C104.233 177.182 104.437 177.098 104.652 177.098C104.868 177.098 105.072 177.182 105.22 177.327C105.368 177.471 105.449 177.665 105.449 177.864V185.947C105.449 186.146 105.368 186.339 105.22 186.484Z" fill="white" stroke="white"/>
<path d="M125.036 186.712C124.822 186.712 124.619 186.628 124.471 186.484C124.323 186.339 124.242 186.146 124.242 185.947V177.864C124.242 177.665 124.323 177.471 124.471 177.327C124.62 177.182 124.824 177.098 125.039 177.098C125.254 177.098 125.458 177.182 125.607 177.327C125.755 177.471 125.836 177.665 125.836 177.864V185.943C125.832 186.142 125.75 186.335 125.602 186.479C125.453 186.624 125.251 186.709 125.036 186.712Z" fill="white" stroke="white"/>
<path d="M84.2729 203.706L84.2729 203.706H84.2656C84.0504 203.706 83.8464 203.622 83.6978 203.477C83.5497 203.333 83.4688 203.139 83.4688 202.94V195.312C83.4688 195.113 83.5497 194.92 83.6978 194.775C83.8464 194.63 84.0504 194.547 84.2656 194.547C84.4808 194.547 84.6849 194.63 84.8334 194.775C84.9816 194.92 85.0625 195.113 85.0625 195.312V202.889V202.903L85.0633 202.917C85.0689 203.018 85.0532 203.119 85.017 203.214C84.9807 203.309 84.9245 203.397 84.851 203.472C84.7775 203.546 84.6884 203.606 84.5888 203.646C84.4891 203.687 84.3816 203.707 84.2729 203.706Z" fill="white" stroke="white"/>
<path d="M104.66 203.706L104.66 203.706H104.652C104.437 203.706 104.233 203.622 104.085 203.477C103.936 203.333 103.855 203.139 103.855 202.94V195.312C103.855 195.113 103.936 194.92 104.085 194.775C104.233 194.63 104.437 194.547 104.652 194.547C104.868 194.547 105.072 194.63 105.22 194.775C105.368 194.92 105.449 195.113 105.449 195.312V202.889V202.903L105.45 202.917C105.456 203.018 105.44 203.119 105.404 203.214C105.367 203.309 105.311 203.397 105.238 203.472C105.164 203.546 105.075 203.606 104.975 203.646C104.876 203.687 104.768 203.707 104.66 203.706Z" fill="white" stroke="white"/>
<path d="M125.04 203.706V203.706L125.033 203.706C124.927 203.707 124.822 203.688 124.724 203.649C124.627 203.61 124.539 203.554 124.466 203.482C124.393 203.411 124.336 203.327 124.298 203.235C124.26 203.143 124.241 203.045 124.242 202.947L124.242 202.947V202.94V195.312C124.242 195.113 124.323 194.92 124.471 194.775C124.62 194.63 124.824 194.547 125.039 194.547C125.254 194.547 125.458 194.63 125.607 194.775C125.755 194.92 125.836 195.113 125.836 195.312V202.889V202.9L125.836 202.91C125.841 203.011 125.824 203.113 125.787 203.208C125.75 203.303 125.693 203.391 125.619 203.466C125.545 203.541 125.456 203.601 125.356 203.643C125.256 203.684 125.149 203.706 125.04 203.706Z" fill="white" stroke="white"/>
<path d="M189.331 131.582L189.329 131.582C183.44 131.599 177.687 133.319 172.797 136.525C167.907 139.732 164.098 144.282 161.854 149.603C159.609 154.924 159.031 160.775 160.192 166.417C161.353 172.06 164.201 177.238 168.374 181.298C172.547 185.359 177.859 188.12 183.636 189.235C189.414 190.351 195.401 189.77 200.841 187.566C206.282 185.362 210.933 181.634 214.206 176.85C217.479 172.065 219.227 166.44 219.227 160.685L219.227 160.683C219.203 152.953 216.04 145.55 210.435 140.096C204.83 134.642 197.241 131.582 189.331 131.582ZM189.331 191.302C183.117 191.302 177.043 189.504 171.878 186.135C166.713 182.767 162.69 177.981 160.315 172.383C157.94 166.786 157.32 160.628 158.532 154.688C159.744 148.747 162.735 143.289 167.127 139.005C171.52 134.72 177.118 131.802 183.213 130.621C189.308 129.44 195.625 130.049 201.364 132.372C207.103 134.695 212.006 138.625 215.453 143.665C218.9 148.705 220.737 154.628 220.734 160.685C220.729 168.803 217.422 176.589 211.535 182.331C205.647 188.074 197.66 191.302 189.331 191.302Z" fill="white" stroke="white"/>
<path d="M158.116 207.017H158.119L220.559 207.017L220.562 207.017C221.473 207.012 222.347 206.657 222.995 206.025C223.642 205.393 224.011 204.534 224.016 203.635V203.632L224.016 194.671L224.016 194.668C224.011 193.77 223.641 192.912 222.992 192.283C222.344 191.654 221.469 191.302 220.559 191.302H158.119C157.211 191.302 156.337 191.655 155.691 192.285C155.045 192.916 154.68 193.774 154.68 194.671L154.68 203.632C154.68 203.632 154.68 203.632 154.68 203.632C154.68 204.53 155.044 205.39 155.689 206.023C156.334 206.656 157.207 207.012 158.116 207.017ZM220.559 208.549L158.121 208.549C158.121 208.549 158.12 208.549 158.12 208.549C156.78 208.545 155.498 208.022 154.555 207.099C153.613 206.176 153.086 204.929 153.086 203.632V194.671C153.086 193.376 153.613 192.131 154.556 191.211C155.499 190.29 156.78 189.771 158.119 189.771H220.559C221.9 189.771 223.184 190.29 224.13 191.21C225.075 192.13 225.606 193.375 225.61 194.673V203.632C225.61 204.932 225.081 206.181 224.135 207.104C223.189 208.028 221.903 208.549 220.559 208.549Z" fill="white" stroke="white"/>
<path d="M168.968 204.077L168.968 204.077H168.961C168.746 204.077 168.542 203.993 168.393 203.848C168.245 203.704 168.164 203.51 168.164 203.311V194.992C168.164 194.793 168.245 194.599 168.393 194.455C168.542 194.31 168.746 194.226 168.961 194.226C169.176 194.226 169.38 194.31 169.529 194.455C169.677 194.599 169.758 194.793 169.758 194.992V203.311H169.758L169.758 203.318C169.759 203.416 169.74 203.514 169.702 203.606C169.664 203.698 169.607 203.782 169.534 203.853C169.461 203.925 169.373 203.982 169.276 204.02C169.178 204.059 169.073 204.078 168.968 204.077Z" fill="white" stroke="white"/>
<path d="M189.348 204.077V204.077L189.341 204.077C189.235 204.078 189.13 204.059 189.033 204.02C188.936 203.982 188.848 203.925 188.775 203.853C188.702 203.782 188.645 203.698 188.606 203.606C188.568 203.514 188.549 203.416 188.551 203.318L188.551 203.318V203.311V194.992C188.551 194.793 188.632 194.599 188.78 194.455C188.929 194.31 189.133 194.226 189.348 194.226C189.563 194.226 189.767 194.31 189.916 194.455C190.064 194.599 190.145 194.793 190.145 194.992V203.311C190.145 203.51 190.064 203.704 189.916 203.848C189.767 203.993 189.563 204.077 189.348 204.077Z" fill="white" stroke="white"/>
<path d="M209.734 204.077V204.077L209.728 204.077C209.622 204.078 209.517 204.059 209.42 204.02C209.322 203.982 209.235 203.925 209.162 203.853C209.088 203.782 209.031 203.698 208.993 203.606C208.955 203.514 208.936 203.416 208.938 203.318L208.938 203.318V203.311V194.992C208.938 194.793 209.019 194.599 209.167 194.455C209.315 194.31 209.519 194.226 209.734 194.226C209.95 194.226 210.154 194.31 210.302 194.455C210.45 194.599 210.531 194.793 210.531 194.992V203.311C210.531 203.51 210.45 203.704 210.302 203.848C210.154 203.993 209.95 204.077 209.734 204.077Z" fill="white" stroke="white"/>
<path d="M200.314 148.561L200.314 148.561L200.306 148.57L179.472 173.729C179.471 173.729 179.471 173.729 179.471 173.73C179.4 173.813 179.312 173.883 179.212 173.934C179.117 173.982 179.013 174.012 178.905 174.022C178.72 174.017 178.543 173.953 178.4 173.843C178.24 173.714 178.14 173.531 178.119 173.334C178.098 173.138 178.157 172.939 178.286 172.782C178.287 172.782 178.287 172.782 178.287 172.781L199.148 147.632C199.278 147.494 199.457 147.404 199.653 147.383C199.85 147.361 200.047 147.412 200.206 147.522C200.285 147.582 200.349 147.657 200.397 147.74C200.446 147.826 200.477 147.92 200.487 148.017C200.498 148.114 200.488 148.212 200.458 148.305C200.429 148.398 200.38 148.485 200.314 148.561Z" fill="white" stroke="white"/>
<path d="M180.459 145.301L180.457 145.301C179.549 145.305 178.661 145.572 177.907 146.07C177.152 146.568 176.564 147.274 176.22 148.101C175.875 148.929 175.789 149.838 175.975 150.714C176.16 151.589 176.607 152.389 177.258 153.013C177.908 153.637 178.732 154.057 179.625 154.222C180.518 154.387 181.441 154.289 182.278 153.941C183.114 153.592 183.828 153.009 184.327 152.261C184.826 151.514 185.087 150.638 185.075 149.744L185.075 149.741C185.054 148.553 184.556 147.422 183.692 146.593C182.827 145.764 181.666 145.301 180.459 145.301ZM180.46 155.831C179.236 155.828 178.041 155.471 177.026 154.807C176.01 154.143 175.221 153.202 174.755 152.104C174.289 151.006 174.166 149.799 174.402 148.634C174.638 147.469 175.222 146.396 176.083 145.552C176.944 144.707 178.043 144.129 179.243 143.891C180.443 143.653 181.688 143.768 182.821 144.219C183.954 144.67 184.922 145.437 185.606 146.423C186.29 147.407 186.659 148.566 186.669 149.753C186.673 150.548 186.516 151.336 186.207 152.072C185.898 152.809 185.442 153.479 184.866 154.045C184.289 154.61 183.603 155.059 182.847 155.366C182.091 155.673 181.28 155.831 180.46 155.831Z" fill="white" stroke="white"/>
<path d="M198.239 167.053V167.053H198.235C197.329 167.053 196.443 167.315 195.687 167.807C194.932 168.299 194.341 169 193.991 169.822C193.64 170.645 193.548 171.551 193.724 172.426C193.901 173.3 194.339 174.102 194.981 174.732C195.623 175.361 196.44 175.789 197.329 175.964C198.217 176.138 199.138 176.052 199.977 175.716C200.816 175.38 201.537 174.808 202.046 174.071C202.555 173.333 202.829 172.463 202.833 171.571L202.833 171.567C202.828 170.371 202.34 169.227 201.479 168.383C200.618 167.54 199.454 167.063 198.239 167.053ZM198.236 177.583C197.009 177.58 195.811 177.222 194.794 176.555C193.778 175.888 192.988 174.944 192.524 173.842C192.06 172.74 191.941 171.53 192.182 170.363C192.423 169.196 193.014 168.124 193.881 167.281C194.749 166.439 195.854 165.866 197.058 165.635C198.262 165.405 199.509 165.528 200.641 165.989C201.772 166.449 202.737 167.226 203.413 168.22C204.089 169.213 204.447 170.378 204.444 171.568C204.442 172.358 204.281 173.141 203.969 173.871C203.656 174.601 203.2 175.264 202.624 175.824C202.048 176.383 201.364 176.826 200.611 177.128C199.858 177.431 199.051 177.585 198.236 177.583Z" fill="white" stroke="white"/>
<path d="M169.087 130.627C168.939 130.769 168.739 130.852 168.527 130.856C168.314 130.852 168.112 130.767 167.964 130.623C167.816 130.478 167.734 130.286 167.73 130.087V126.125C167.73 125.926 167.811 125.732 167.96 125.588C168.108 125.443 168.312 125.359 168.527 125.359C168.743 125.359 168.947 125.443 169.095 125.588C169.243 125.732 169.324 125.926 169.324 126.125V130.1C169.317 130.296 169.234 130.485 169.087 130.627Z" fill="white" stroke="white"/>
<path d="M167.73 111.393V110.893H167.23H159.916H159.416V111.393V130.091C159.416 130.29 159.335 130.483 159.187 130.628C159.039 130.772 158.836 130.855 158.622 130.856C158.408 130.853 158.205 130.768 158.056 130.623C157.908 130.478 157.826 130.286 157.822 130.087V110.131C157.826 109.932 157.908 109.74 158.056 109.595C158.205 109.45 158.408 109.365 158.623 109.362H168.524C168.739 109.365 168.942 109.45 169.09 109.595C169.238 109.74 169.321 109.932 169.324 110.131V119.696C169.324 119.895 169.243 120.088 169.095 120.233C168.947 120.378 168.742 120.461 168.527 120.461C168.312 120.461 168.108 120.378 167.959 120.233C167.811 120.088 167.73 119.895 167.73 119.696V111.393Z" fill="white" stroke="white"/>
<path d="M172.57 110.893L172.57 110.893H172.558L154.609 110.893L154.606 110.893C154.192 110.895 153.787 110.782 153.438 110.568C153.09 110.355 152.812 110.049 152.638 109.69L152.638 109.69L152.636 109.685C152.458 109.328 152.391 108.929 152.443 108.537C152.494 108.144 152.662 107.773 152.927 107.47L152.927 107.47L152.933 107.464L161.9 96.8746C162.111 96.6479 162.368 96.4658 162.656 96.3404C162.948 96.2136 163.263 96.1479 163.583 96.1479C163.903 96.1479 164.219 96.2136 164.51 96.3404C164.799 96.4658 165.056 96.6482 165.267 96.8751L174.287 107.465L174.286 107.465L174.291 107.47C174.556 107.773 174.724 108.144 174.776 108.537C174.827 108.929 174.76 109.328 174.583 109.685L174.581 109.69C174.403 110.056 174.119 110.365 173.762 110.58C173.405 110.794 172.991 110.904 172.57 110.893ZM164.019 97.8429L163.641 97.3894L163.256 97.8372L154.16 108.418L153.457 109.237L154.536 109.244L172.554 109.362L173.631 109.369L172.942 108.542L164.019 97.8429Z" fill="white" stroke="white"/>
<path d="M196.314 111.981C196.166 112.125 195.963 112.208 195.749 112.209C195.534 112.206 195.332 112.121 195.183 111.976C195.035 111.831 194.953 111.639 194.949 111.44V107.461C194.949 107.262 195.03 107.069 195.178 106.924C195.327 106.779 195.531 106.696 195.746 106.696C195.961 106.696 196.165 106.779 196.314 106.924C196.462 107.069 196.543 107.262 196.543 107.461V111.444C196.543 111.643 196.462 111.836 196.314 111.981Z" fill="white" stroke="white"/>
<path d="M194.947 92.7462V92.2462H194.447H187.15H186.65V92.7462V111.44C186.647 111.639 186.564 111.831 186.416 111.976C186.268 112.121 186.065 112.206 185.85 112.209C185.636 112.209 185.434 112.125 185.286 111.981C185.138 111.836 185.057 111.643 185.057 111.444V91.4806C185.057 91.2815 185.138 91.0881 185.286 90.9435C185.434 90.7985 185.638 90.715 185.854 90.715H195.744C195.96 90.715 196.164 90.7985 196.312 90.9435C196.46 91.0881 196.541 91.2815 196.541 91.4806V101.049C196.541 101.248 196.46 101.441 196.312 101.586C196.164 101.731 195.96 101.814 195.744 101.814C195.529 101.814 195.325 101.731 195.177 101.586C195.028 101.441 194.947 101.248 194.947 101.049V92.7462Z" fill="white" stroke="white"/>
<path d="M199.792 92.2465L199.783 92.2462H199.774H181.833C181.429 92.2328 181.037 92.1095 180.702 91.8914C180.365 91.6721 180.1 91.3662 179.934 91.0095C179.769 90.653 179.71 90.2592 179.763 89.8724C179.816 89.4857 179.979 89.1199 180.236 88.8168C180.236 88.8168 180.236 88.8168 180.236 88.8167L189.21 78.2193L189.21 78.219C189.413 77.9796 189.667 77.786 189.957 77.6529C190.247 77.5198 190.564 77.4508 190.885 77.4512V77.4512L190.891 77.4512C191.212 77.4478 191.528 77.5152 191.817 77.648C192.106 77.7807 192.359 77.9749 192.559 78.2154L192.559 78.2154L192.562 78.2193L201.537 88.8168L201.537 88.8169L201.542 88.8229C201.807 89.1263 201.975 89.4971 202.027 89.8897C202.078 90.2822 202.011 90.6813 201.834 91.0385L201.834 91.0385L201.831 91.043C201.652 91.4133 201.364 91.726 201.001 91.9407C200.639 92.1555 200.218 92.2622 199.792 92.2465ZM191.253 79.1963L190.875 78.742L190.49 79.1903L181.394 89.7709L180.69 90.5897L181.77 90.5968L199.771 90.7149L200.847 90.722L200.158 89.8951L191.253 79.1963Z" fill="white" stroke="white"/>
<path d="M104.669 156.996L104.661 156.996H104.653C99.6515 156.996 95.3778 153.743 94.6844 149.699L94.6843 149.698C94.6503 149.502 94.6973 149.299 94.8177 149.133C94.9385 148.968 95.1243 148.852 95.3364 148.817C95.5486 148.782 95.7653 148.831 95.9382 148.951C96.1103 149.071 96.2237 149.25 96.258 149.446C96.8466 152.943 100.523 155.461 104.645 155.464C106.291 155.518 107.919 155.112 109.337 154.291C110.758 153.469 111.91 152.266 112.654 150.823L112.665 150.802L112.674 150.78C113.248 149.347 113.293 147.763 112.8 146.302C112.308 144.84 111.31 143.595 109.982 142.777L109.956 142.761L109.929 142.748C108.284 141.992 106.501 141.563 104.686 141.488C103.283 141.362 101.896 141.108 100.541 140.732C98.8446 140.201 97.3613 139.169 96.2955 137.781C95.2295 136.393 94.6334 134.718 94.5879 132.987C94.5919 128.278 99.0234 124.482 104.653 124.482H104.664L104.674 124.481C106.864 124.388 109.022 125.007 110.81 126.24C112.593 127.469 113.905 129.239 114.546 131.27C114.589 131.46 114.555 131.66 114.449 131.828C114.34 132.001 114.163 132.128 113.955 132.177C113.745 132.226 113.525 132.192 113.344 132.083C113.163 131.975 113.037 131.803 112.989 131.608L112.984 131.588L112.977 131.568C112.407 129.871 111.279 128.409 109.772 127.405C108.269 126.404 106.471 125.916 104.657 126.013C100.129 126.019 96.1816 129.137 96.1816 132.993V133.001L96.1819 133.01C96.2292 134.424 96.7265 135.786 97.6028 136.909C98.479 138.032 99.6901 138.859 101.067 139.277L101.067 139.277L101.076 139.279C102.332 139.634 103.621 139.866 104.924 139.971L104.933 139.972L104.942 139.973C106.967 140.062 108.949 140.565 110.761 141.449C112.432 142.449 113.686 143.991 114.303 145.801C114.921 147.612 114.863 149.578 114.139 151.352C113.299 153.085 111.958 154.544 110.278 155.547C108.594 156.553 106.644 157.057 104.669 156.996Z" fill="white" stroke="white"/>
<path d="M105.22 125.785C105.072 125.929 104.87 126.012 104.656 126.013C104.441 126.01 104.238 125.925 104.089 125.78C103.941 125.635 103.859 125.443 103.855 125.244V120.944C103.855 120.745 103.936 120.552 104.085 120.407C104.233 120.262 104.437 120.179 104.652 120.179C104.868 120.179 105.072 120.262 105.22 120.407C105.368 120.552 105.449 120.745 105.449 120.944V125.247C105.449 125.447 105.368 125.64 105.22 125.785Z" fill="white" stroke="white"/>
<path d="M104.659 161.282L104.659 161.282H104.652C104.437 161.282 104.233 161.198 104.085 161.053C103.936 160.909 103.855 160.715 103.855 160.516V156.23C103.855 156.031 103.936 155.837 104.085 155.693C104.233 155.548 104.437 155.464 104.652 155.464C104.868 155.464 105.072 155.548 105.22 155.693C105.368 155.837 105.449 156.031 105.449 156.23V160.516H105.449L105.449 160.523C105.451 160.621 105.432 160.719 105.394 160.811C105.355 160.903 105.298 160.987 105.225 161.058C105.152 161.13 105.065 161.187 104.967 161.225C104.87 161.264 104.765 161.283 104.659 161.282Z" fill="white" stroke="white"/>
<defs>
<linearGradient id="paint0_linear_4054_10128" x1="147" y1="19" x2="147" y2="276" gradientUnits="userSpaceOnUse">
<stop stop-color="#0192AB"/>
<stop offset="1" stop-color="#00B0A6"/>
</linearGradient>
</defs>
</svg>
